<svg xmlns="http://www.w3.org/2000/svg" viewBox="0 0 212 212"><defs><radialGradient cx="54.7%" cy="24%" fx="54.7%" fy="24%" r="27.5%" gradientTransform="matrix(0 1 -1.99252 0 1 -.3)" id="a"><stop stop-color="#FFF" offset="0%"/><stop stop-color="#E5E5E5" offset="57.7%"/><stop stop-color="#606060" offset="100%"/></radialGradient><radialGradient cx="61%" cy="94.2%" fx="61%" fy="94.2%" r="62.9%" gradientTransform="scale(-.99512 -1) rotate(77.2 1.2 -.8)" id="c"><stop stop-color="#FFF" offset="0%"/><stop stop-color="#313131" offset="80.6%"/><stop stop-color="#FFF" offset="100%"/></radialGradient><filter x="-3.2%" y="-3.2%" width="106.3%" height="106.3%" filterUnits="objectBoundingBox" id="b"><feGaussianBlur stdDeviation="2" in="SourceGraphic"/></filter></defs><g fill="none" fill-rule="evenodd"><circle fill="#1D1D1D" cx="106" cy="106" r="106"/><circle fill="url(#a)" cx="105.5" cy="105.5" r="92.5"/><path d="M105.5 11a94.5 94.5 0 110 189 94.5 94.5 0 010-189zm1 14a81.5 81.5 0 100 163 81.5 81.5 0 000-163z" fill="#5E5E5E" opacity=".6" filter="url(#b)"/><path d="M105.5 4C162.1 4 208 49.7 208 106s-45.9 102-102.5 102A102.3 102.3 0 013 106C3 49.7 48.9 4 105.5 4zm0 14A88.3 88.3 0 0017 106c0 48.6 39.6 88 88.5 88a88.3 88.3 0 0088.5-88c0-48.6-39.6-88-88.5-88z" fill="url(#c)"/><text stroke="#FFF" stroke-width="3" font-family="HiraginoSans-W8, Hiragino Sans" font-size="141" font-weight="600" fill="#000"><tspan x="35" y="159">べ</tspan></text></g></svg>