<svg width="185" height="700" xmlns="http://www.w3.org/2000/svg"><defs><linearGradient x1="50%" y1="48%" x2="14.4%" y2="53.5%" id="a"><stop stop-color="#FFE879" offset="0%"/><stop stop-color="#FFE879" offset="0%"/><stop stop-color="#FFE69E" offset="45.3%"/><stop offset="50%"/><stop stop-color="#FFF09E" offset="51.6%"/><stop offset="75.2%"/><stop stop-color="#FFE578" offset="82.1%"/><stop stop-color="#FFFED0" offset="100%"/></linearGradient><linearGradient x1="59.2%" y1="34.4%" x2="43.8%" y2="35.6%" id="b"><stop stop-color="#FFF" offset="0%"/><stop stop-color="#B28934" offset="45.6%"/><stop stop-color="#E6D068" offset="60.8%"/><stop stop-color="#FFF181" offset="100%"/></linearGradient><linearGradient x1="58.2%" y1="34.4%" x2="44.5%" y2="35.6%" id="c"><stop stop-color="#FFF" offset="0%"/><stop stop-color="#B28934" offset="45.6%"/><stop stop-color="#E6D068" offset="60.8%"/><stop stop-color="#FFF181" offset="100%"/></linearGradient><linearGradient x1="67.4%" y1="44.7%" x2="42.8%" y2="61.6%" id="d"><stop stop-color="#11C400" offset="0%"/><stop stop-color="#0D9A00" offset="18.9%"/><stop stop-color="#0C8B00" offset="38.2%"/><stop stop-color="#B6F0B1" offset="100%"/></linearGradient><linearGradient x1="22.9%" y1="45.8%" x2="83.4%" y2="50%" id="e"><stop stop-color="#ABF8A3" offset="0%"/><stop stop-color="#2EA023" offset="67.1%"/><stop stop-color="#085C00" offset="100%"/></linearGradient><linearGradient x1="40.6%" y1="56.3%" x2="62%" y2="43.7%" id="f"><stop stop-color="#4CDF3E" offset="0%"/><stop stop-color="#17A40A" offset="22.3%"/><stop stop-color="#0D9A00" offset="58.9%"/><stop stop-color="#0C8B00" offset="78.6%"/><stop stop-color="#B6F0B1" offset="100%"/></linearGradient><linearGradient x1="50%" y1="0%" x2="50%" y2="100%" id="g"><stop stop-color="#FFDF3F" offset="0%"/><stop stop-color="#D7BF43" offset="32.9%"/><stop stop-color="#7D764C" offset="50.3%"/><stop stop-color="#FFFDD3" offset="64.8%"/><stop stop-color="#FFE387" offset="100%"/></linearGradient><linearGradient x1="67.4%" y1="44.8%" x2="42.8%" y2="61.5%" id="h"><stop stop-color="#11C400" offset="0%"/><stop stop-color="#0D9A00" offset="18.9%"/><stop stop-color="#0C8B00" offset="38.2%"/><stop stop-color="#B6F0B1" offset="100%"/></linearGradient><linearGradient x1="22.9%" y1="46.8%" x2="83.4%" y2="50%" id="i"><stop stop-color="#ABF8A3" offset="0%"/><stop stop-color="#2EA023" offset="67.1%"/><stop stop-color="#085C00" offset="100%"/></linearGradient><linearGradient x1="40.6%" y1="59.1%" x2="62%" y2="40.9%" id="j"><stop stop-color="#4CDF3E" offset="0%"/><stop stop-color="#17A40A" offset="22.3%"/><stop stop-color="#0D9A00" offset="58.9%"/><stop stop-color="#0C8B00" offset="78.6%"/><stop stop-color="#B6F0B1" offset="100%"/></linearGradient></defs><g fill="none" fill-rule="evenodd"><path d="M371 299a710 710 0 01-309 74c-103 0-205-24-307-73v52a849 849 0 00616 0v-53z" stroke="#674831" stroke-width="10" fill="url(#a)" transform="rotate(90 63 354)"/><g transform="translate(1 517)" stroke="#694C4C" stroke-width="5"><path d="M10 11C20 4 28 1 36 3c7 2 14 7 20 18 7 10 8 19 5 26-1 4-4 6-7 8s-7 3-12 3h0v5h3c9 13 14 25 14 37 0 9-4 18-9 24-6 6-13 11-22 11-7 0-10-1-12-2 0 0 0 0 0 0v-4l1-11c0-5 2-10 4-15 2-7 5-13 4-19 0-4-1-8-6-11-7-4-14-20-16-35-1-6-1-12 1-17 1-5 3-8 6-10zm13 40l-3 4c5 5 13 8 20 8l1-5c-6 0-13-2-18-7zm-7-10c-2 5 0 10 3 13l4-3c-2-2-3-5-2-9l-5-1zm14-15c-5 0-8 2-10 4-3 3-4 7-4 10v1l5 1v-1c0-2 0-5 3-8l6-2v-5zm1 0v5l7 5c2 3 3 2 4 1 1 0 2 0 2-2a11 11 0 00-3-3l-4-4-6-2z" fill="url(#b)" transform="matrix(-1 0 0 1 65 0)"/><path d="M91 92c9-6 17-10 25-8 7 2 13 7 19 18 7 11 8 20 5 28-1 3-3 6-7 8-3 2-7 3-11 3h0v5h3c9 13 13 26 13 38 0 9-3 18-9 25-5 6-13 11-21 11-6 0-10-1-11-2h-1l1-5 1-11 3-14v-1c3-7 5-14 5-19s-2-9-6-11c-7-5-14-21-16-37-1-6-1-12 1-18 1-4 3-8 6-10zm13 42l-4 3c5 5 13 8 19 9l1-5c-5 0-12-3-16-7zm-8-10c-1 5 1 9 4 13l4-4c-2-2-4-5-3-8l-5-1zm14-16c-4 0-7 1-9 4-3 3-4 8-5 10v1l5 1v-1l3-8 6-2v-5zm1 0v5c1 0 3 1 6 5 3 3 4 2 5 1l1-2a12 12 0 00-2-3l-4-4-6-2z" fill="url(#c)" transform="rotate(90 112 152)"/><path d="M51 69c-17 0-30 6-38 17 10 12 22 18 38 18 16 1 29-5 39-17-9-12-22-18-39-18z" fill="url(#d)" transform="rotate(107 52 87)"/><path d="M89 110c-10 0-18 2-25 6s-13 9-17 17c10 16 24 24 42 24 17 0 32-8 43-24a49 49 0 00-43-23z" fill="url(#e)" transform="rotate(-180 90 133)"/><path d="M88 78c-24 0-42 6-54 20 14 13 32 20 54 21 23 0 41-7 56-20a75 75 0 00-56-21z" fill="url(#f)" transform="rotate(142 89 98)"/><circle fill="url(#g)" cx="32" cy="138" r="15.5"/></g><g transform="matrix(1 0 0 -1 1 183)" stroke="#694C4C" stroke-width="5"><path d="M10 11C20 4 28 1 36 3c7 2 14 7 20 18 7 10 8 19 5 26-1 4-4 6-7 8s-7 3-12 3h0v5h3c9 13 14 25 14 37 0 9-4 18-9 24-6 6-13 11-22 11-7 0-10-1-12-2 0 0 0 0 0 0v-4l1-11c0-5 2-10 4-15 2-7 5-13 4-19 0-4-1-8-6-11-7-4-14-20-16-35-1-6-1-12 1-17 1-5 3-8 6-10zm13 40l-3 4c5 5 13 8 20 8l1-5c-6 0-13-2-18-7zm-7-10c-2 5 0 10 3 13l4-3c-2-2-3-5-2-9l-5-1zm14-15c-5 0-8 2-10 4-3 3-4 7-4 10v1l5 1v-1c0-2 0-5 3-8l6-2v-5zm1 0v5l7 5c2 3 3 2 4 1 1 0 2 0 2-2a11 11 0 00-3-3l-4-4-6-2z" fill="url(#b)" transform="matrix(-1 0 0 1 65 0)"/><path d="M91 92c9-6 17-10 25-8 7 2 13 7 19 18 7 11 8 20 5 28-1 3-3 6-7 8-3 2-7 3-11 3h0v5h3c9 13 13 26 13 38 0 9-3 18-9 25-5 6-13 11-21 11-6 0-10-1-11-2h-1l1-5 1-11 3-14v-1c3-7 5-14 5-19s-2-9-6-11c-7-5-14-21-16-37-1-6-1-12 1-18 1-4 3-8 6-10zm13 42l-4 3c5 5 13 8 19 9l1-5c-5 0-12-3-16-7zm-8-10c-1 5 1 9 4 13l4-4c-2-2-4-5-3-8l-5-1zm14-16c-4 0-7 1-9 4-3 3-4 8-5 10v1l5 1v-1l3-8 6-2v-5zm1 0v5c1 0 3 1 6 5 3 3 4 2 5 1l1-2a12 12 0 00-2-3l-4-4-6-2z" fill="url(#c)" transform="rotate(90 112 152)"/><path d="M49 65c-20-1-34 6-44 20 11 13 26 20 44 20 19 1 34-6 46-20a55 55 0 00-46-20z" fill="url(#h)" transform="rotate(107 50 85)"/><path d="M78 117c-19 0-33 6-42 19 10 14 24 21 42 21 17 0 31-7 43-21a51 51 0 00-43-19z" fill="url(#i)" transform="rotate(-180 79 137)"/><path d="M83 72c-22 0-38 7-49 22 13 15 29 23 50 23 20 0 37-7 50-22a62 62 0 00-51-23z" fill="url(#j)" transform="rotate(142 84 94)"/><circle fill="url(#g)" cx="32" cy="138" r="15.5"/></g></g></svg>