<svg viewBox="0 0 250 250" xmlns="http://www.w3.org/2000/svg" fill-rule="evenodd" clip-rule="evenodd" stroke-linecap="round" stroke-linejoin="round" stroke-miterlimit="1.5"><ellipse cx="34" cy="77.9" rx="34.1" ry="35.8" fill="#b5662d" stroke="#b5662d" transform="matrix(.93124 .4097 -.41593 .94542 37 -4)"/><ellipse cx="34" cy="77.9" rx="34.1" ry="35.8" fill="#b5662d" stroke="#b5662d" transform="matrix(.86787 -.5309 .53899 .88109 142 33)"/><path d="M124 56c36 0 62 7 81 55 8 22-1 56-1 56s13 28-9 44c-17 14-102 19-134 4s-15-48-15-48c-3-7-9-38-2-56 18-47 43-56 80-55z" fill="#ffbd3f" stroke="#ffbd3f"/><path d="M77 30s1 20 11 28c11 7 19 9 29 10 11 1 25-2 34-14h13l3-13-16 3s0-10-20-13c-19-3-31 6-54-1z" fill="#5dae00" stroke="#5dae00"/><path d="M117 143c1-1 2-31-28-31-34-1-44 37-33 58 7 13 29 13 45 0 16-12 16-26 16-27zM132 143c0-1-2-31 28-32 35-1 44 38 33 59-6 13-28 12-45 0-16-12-15-26-16-27z" fill="#b5662d" stroke="#b5662d"/><path d="M101 32S86 42 86 59c0 16 8 23 15 26 0 0 12 16 27 6l5-18s-22-14-16-26c0 0-10 6-5 18 0 0-24-11-11-33z" fill="#ffbd3f" stroke="#ffbd3f"/></svg>