<svg xmlns="http://www.w3.org/2000/svg" xmlns:xlink="http://www.w3.org/1999/xlink" viewBox="0 0 570 189"><defs><linearGradient x1="50%" y1="0%" x2="50%" y2="100%" id="a"><stop stop-color="#FFE879" offset="0%"/><stop stop-color="#FFE69E" offset="36.8%"/><stop offset="39.7%"/><stop stop-color="#FFF09E" offset="42.1%"/><stop stop-color="#FFE2AC" offset="44.3%"/><stop stop-color="#1D1800" offset="55.3%"/><stop offset="61.2%"/><stop stop-color="#FFE578" offset="82.1%"/><stop stop-color="#FFFED0" offset="100%"/></linearGradient><linearGradient x1="50%" y1="0%" x2="50%" y2="100%" id="c"><stop stop-color="#FFF1F8" offset="0%"/><stop stop-color="#B24073" offset="18.4%"/><stop stop-color="#931040" offset="52%"/><stop stop-color="#AA3466" offset="69.4%"/><stop stop-color="#D3749D" offset="80.7%"/><stop stop-color="#FF2A7E" offset="100%"/></linearGradient><linearGradient x1="50%" y1="0%" x2="50%" y2="100%" id="b"><stop stop-color="#900052" offset="2.3%"/><stop stop-color="#A47C8B" offset="47.5%"/><stop stop-color="#A0003B" offset="100%"/></linearGradient><linearGradient x1="0%" y1="23%" x2="100%" y2="100%" id="d"><stop stop-color="#EEE" offset="0%"/><stop stop-color="#FFDC00" offset="22.5%"/><stop stop-color="#D2A800" offset="38%"/><stop stop-color="#8F5C00" offset="45.8%"/><stop stop-color="#F7E46A" offset="66.5%"/><stop stop-color="#D8D8D8" offset="100%"/></linearGradient><filter x="-1.7%" y="-6.9%" width="103.4%" height="127.5%" filterUnits="objectBoundingBox" id="e"><feOffset dy="11" in="SourceAlpha" result="shadowOffsetOuter1"/><feColorMatrix values="0 0 0 0 0   0 0 0 0 0   0 0 0 0 0  0 0 0 0.5 0" in="shadowOffsetOuter1"/></filter><text id="f" font-family="HiraginoSans-W8, Hiragino Sans" font-size="80" font-weight="600" fill="#FFF"><tspan x="125" y="125">リセット</tspan></text></defs><g fill="none" fill-rule="evenodd"><rect stroke="#3B3B3B" stroke-width="6" fill="url(#a)" x="3" y="3" width="564" height="183" rx="42"/><rect stroke="url(#b)" stroke-width="7" fill="url(#c)" x="17.5" y="13.5" width="533" height="163" rx="42"/><path fill="#393939" d="M529 64l34 34-34 34-34-34z"/><path fill="url(#d)" transform="rotate(45 210 661)" d="M10 10h48v48H10z"/><path fill="#393939" d="M528 70l23 23-23 23-23-23z"/><g><path fill="#393939" d="M40 63l34 34-34 34L6 97z"/><path fill="url(#d)" transform="rotate(45 -33 70)" d="M10 10h48v48H10z"/><path fill="#393939" d="M39 69l23 23-23 23-23-23z"/></g><g fill="#FFF"><use filter="url(#e)" xlink:href="#f"/><use xlink:href="#f"/></g></g></svg>