<svg xmlns="http://www.w3.org/2000/svg" viewBox="0 0 471 36"><defs><linearGradient x1="50%" y1="0%" x2="50%" y2="100%" id="a"><stop stop-color="#FFEFCD" offset="0%"/><stop stop-color="#F7E2BB" offset="28.3%"/><stop stop-color="#DBB577" offset="59.9%"/><stop stop-color="#D4AB67" offset="84.6%"/><stop stop-color="#FCE9C5" offset="100%"/></linearGradient><linearGradient x1="50%" y1="0%" x2="50%" y2="100%" id="b"><stop stop-color="#FFEFCD" offset="0%"/><stop stop-color="#F7E2BB" offset="28.3%"/><stop stop-color="#DBB577" offset="59.9%"/><stop stop-color="#D4AB67" offset="84.6%"/><stop stop-color="#FCE9C5" offset="100%"/></linearGradient><linearGradient x1="50%" y1="0%" x2="50%" y2="100%" id="c"><stop stop-color="#FFEFCD" offset="0%"/><stop stop-color="#F7E2BB" offset="28.3%"/><stop stop-color="#DBB577" offset="59.9%"/><stop stop-color="#D4AB67" offset="84.6%"/><stop stop-color="#FCE9C5" offset="100%"/></linearGradient><linearGradient x1="56%" y1="83.6%" x2="56%" y2="18.5%" id="d"><stop stop-color="#FFEFCD" offset="0%"/><stop stop-color="#F7E2BB" offset="28.3%"/><stop stop-color="#DBB577" offset="59.9%"/><stop stop-color="#D4AB67" offset="84.6%"/><stop stop-color="#FCE9C5" offset="100%"/></linearGradient></defs><g stroke="#694C4C" fill="none" fill-rule="evenodd"><path stroke-width="6" fill="url(#a)" d="M38 6h395v23H38z"/><path d="M20 8c-6 .2-10.5 1-13.6 2.6a8.5 8.5 0 00-3.3 2.9A7 7 0 002 17.3c0 1.5.3 2.8 1 4 .8 1.2 2 2.2 3.5 3.1 3.1 1.8 7.6 3 13.5 3.4V8z" stroke-width="4" fill="url(#b)"/><rect stroke-width="4" fill="url(#c)" x="20" y="2" width="18" height="32" rx="8"/><path d="M469 8c-6 .2-10.5 1-13.6 2.6a8.5 8.5 0 00-3.3 2.9 7 7 0 00-1.1 3.8c0 1.5.3 2.8 1 4 .8 1.2 2 2.2 3.5 3.1 3.1 1.8 7.6 3 13.5 3.4V8z" stroke-width="4" fill="url(#d)" transform="rotate(-180 460 18)"/><rect stroke-width="4" fill="url(#c)" x="432" y="2" width="18" height="32" rx="8"/></g></svg>